# xmcd
#
# Track frame offsets: 
#        150
#        27234
#        63597
#        110910
#        151201
#        174802
#        198329
#        222365
#        263897
#        291287
#        321117
#        339377
#
# Disc length: 4785 seconds
#
# Revision: 1
# Processed by: cddbd v1.5.2PL0 Copyright (c) Steve Scherf et al.
# Submitted via: ExactAudioCopyFreeDBPlugin 1.0
#
DISCID=b112af0c
DTITLE=George, Elizabeth - Gott schütze diese Haus
DYEAR=2006
DGENRE=Hörbuch
TTITLE0=28 Gott schütze diese Haus
TTITLE1=29 Gott schütze diese Haus
TTITLE2=30 Gott schütze diese Haus
TTITLE3=31 Gott schütze diese Haus
TTITLE4=32 Gott schütze diese Haus
TTITLE5=33 Gott schütze diese Haus
TTITLE6=34 Gott schütze diese Haus
TTITLE7=35 Gott schütze diese Haus
TTITLE8=36 Gott schütze diese Haus
TTITLE9=37 Gott schütze diese Haus
TTITLE10=38 Gott schütze diese Haus
TTITLE11=39 Gott schütze diese Haus
EXTD=gelesen von Hannelore Hoger
EXTT0=
EXTT1=
EXTT2=
EXTT3=
EXTT4=
EXTT5=
EXTT6=
EXTT7=
EXTT8=
EXTT9=
EXTT10=
EXTT11=
PLAYORDER=
